<svg width="2054px" height="512px" viewBox="0 0 2054 512" version="1.1" xmlns="http://www.w3.org/2000/svg" xmlns:xlink="http://www.w3.org/1999/xlink">
    <defs>
        <linearGradient x1="50%" y1="0%" x2="50%" y2="100%" id="linearGradient-1">
            <stop stop-color="#D2E3E7" offset="0%"></stop>
            <stop stop-color="#ABB3B3" offset="100%"></stop>
        </linearGradient>
    </defs>
    <g id="Page-1" stroke="none" stroke-width="1" fill="none" fill-rule="evenodd">
        <g id="Assets/App-Icon/iTunesArtwork">
            <rect id="Background" fill="#222222" style="mix-blend-mode: darken;" x="0" y="0" width="512" height="512"></rect>
            <g id="Grid" opacity="0.5" stroke="#979797" stroke-width="2">
                <path d="M0,0 L512,512 M512,0 L0,512" id="Diagonal" stroke-linecap="square"></path>
                <path d="M33,0 L33,512 M159,0 L159,512 M256,0 L256,512 M353,0 L353,512 M479,0 L479,512" id="Vertical" stroke-linecap="square"></path>
                <path d="M0,479 L512,479 M0,353 L512,353 M0,256 L512,256 M0,159 L512,159 M0,33 L512,33" id="Horizontal" stroke-linecap="square"></path>
                <path d="M256,479 C379.159499,479 479,379.159499 479,256 C479,132.840501 379.159499,33 256,33 C132.840501,33 33,132.840501 33,256 C33,379.159499 132.840501,479 256,479 Z M256,393 C331.663011,393 393,331.663011 393,256 C393,180.336989 331.663011,119 256,119 C180.336989,119 119,180.336989 119,256 C119,331.663011 180.336989,393 256,393 Z M256,353 C309.571621,353 353,309.571621 353,256 C353,202.428379 309.571621,159 256,159 C202.428379,159 159,202.428379 159,256 C159,309.571621 202.428379,353 256,353 Z" id="Rings"></path>
            </g>
            <g id="scp" transform="translate(256.000000, 245.025000) scale(1, -1) translate(-256.000000, -245.025000) translate(41.000000, 44.000000)" fill="#FFFFFF">
                <path d="M152.818059,401.468553 C152.760108,401.159479 151.407907,393.413297 149.804582,384.218329 C148.220575,375.02336 146.849057,367.393082 146.771788,367.257862 C146.675202,367.122642 145.361635,366.504492 143.816262,365.886343 C113.89398,353.813118 86.9465409,333.72327 66.8180593,308.495058 C45.9555256,282.339623 32.2982929,251.161725 27.4303684,218.670261 C27.1599281,216.815813 26.8315364,215.077269 26.7349506,214.826146 C26.3486074,213.879605 25.5759209,206.461815 25.2088949,200.048518 C24.9577718,195.605571 24.9577718,184.440252 25.2088949,179.746181 C25.4407008,175.53504 25.8077269,171.59434 26.4065588,166.552561 L26.8315364,162.998203 L26.05885,162.283468 C24.4555256,160.77673 22.3113208,158.806379 20.1864331,156.855346 C18.9694519,155.734951 17.3661276,154.266846 16.6127583,153.571429 C14.9901168,152.045373 14.7003594,151.79425 6.52920036,144.221923 C2.99415993,140.97664 0.0772686433,138.233603 0.0193171608,138.137017 C-0.0386343217,138.059748 2.37601078,133.732704 5.37017071,128.536388 C8.36433064,123.340072 22.3885894,99.0777179 36.509434,74.6221923 C50.6302785,50.1473495 62.2785265,30.1347709 62.3944295,30.1347709 C62.5103324,30.1347709 64.0363881,30.6563342 65.7942498,31.3131177 C67.5327942,31.950584 71.3189578,33.3414196 74.1778976,34.3845463 C91.1769991,40.6046721 95.3495058,42.1114106 95.5040431,42.1114106 C95.6199461,42.1114106 96.1994609,41.6864331 96.8369272,41.1648697 C100.371968,38.2093441 109.045373,32.1051213 114.743935,28.5507637 C124.402516,22.5238095 136.977987,16.3809524 148.742138,11.9766397 C176.82929,1.44878706 207.910602,-2.26010782 237.697664,1.35220126 C253.595687,3.28391734 269.648248,7.30188679 283.962264,12.9424978 C285.874663,13.695867 287.613208,14.3333333 287.825696,14.3719677 C288.868823,14.5458221 295.050314,17.3661276 301.154537,20.4375562 C311.064241,25.460018 319.737646,30.8301887 328.836029,37.6105121 L332.564241,40.3728661 L333.568733,40.0637916 C334.128931,39.8899371 334.843666,39.6774483 335.15274,39.5615454 C336.060647,39.271788 344.869272,36.5287511 346.163522,36.1424079 C348.404313,35.4663073 358.719677,32.2403414 359.202606,32.066487 C359.473046,31.9699012 360.593441,31.6221923 361.713836,31.2938005 C362.834232,30.9460916 364.553459,30.4245283 365.538634,30.0961366 C366.52381,29.787062 367.412399,29.5552561 367.508985,29.5938904 C367.740791,29.671159 429.942049,137.364331 429.86478,137.538185 C429.806828,137.673405 426.097934,140.802785 410.586253,153.725966 C406.703504,156.971249 403.380952,159.772237 403.168464,159.946092 C402.820755,160.293801 402.820755,160.351752 403.207098,163.172058 C405.351303,178.278077 405.602426,193.22956 403.999102,209.01168 C400.290207,245.501797 386.304582,279.731806 363.336478,308.533693 C348.616801,327.000898 330.014376,342.918239 309.364331,354.721024 C302.893082,358.410602 293.891285,362.834232 287.400719,365.480683 C286.512129,365.828392 285.75876,366.272686 285.720126,366.427224 C285.662174,366.601078 283.865678,374.521114 281.740791,384.025157 C279.596586,393.5292 277.80009,401.468553 277.761456,401.661725 C277.66487,401.9708 274.516173,401.990117 215.289757,401.990117 L152.933962,401.990117 L152.818059,401.468553 Z M267.330189,391.616801 C267.484726,391.095238 271.869721,372.318958 273.434412,365.480683 C274.187781,362.138814 274.883199,359.144654 274.960467,358.816262 C275.095687,358.275382 275.308176,358.159479 278.765948,356.826595 C286.376909,353.890386 295.455975,349.679245 301.734052,346.163522 C322.210243,334.727763 339.84681,319.853549 354.27673,301.927224 C376.761905,273.975292 390.2646,240.073675 393.181491,204.278976 C393.818958,196.532794 393.934861,182.798293 393.39398,176.365678 C392.891734,170.184187 391.945193,162.940252 390.844115,156.797394 L390.612309,155.503145 L391.462264,154.672507 C391.945193,154.228212 393.12354,153.204403 394.070081,152.412399 C395.035939,151.620395 395.905211,150.867026 396.040431,150.751123 C396.156334,150.63522 397.141509,149.804582 398.242588,148.915993 C399.324349,148.027403 401.043576,146.597934 402.067385,145.747978 C403.091195,144.878706 406.394429,142.116352 409.427224,139.585804 C416.806379,133.404313 416.284816,133.887242 416.05301,133.500898 C415.956424,133.327044 404.230907,113.044025 390.032794,88.4339623 C374.501797,61.5251572 364.07053,43.6567835 363.915993,43.6567835 C363.761456,43.6567835 362.216083,44.081761 360.496855,44.6033243 C358.777628,45.1248877 357.058401,45.646451 356.691375,45.7430368 C355.880054,45.9555256 348.017969,48.3315364 346.356694,48.8530997 C345.719227,49.0655885 344.424978,49.4519317 343.459119,49.7416891 C342.512579,50.0314465 341.546721,50.3405211 341.334232,50.4177898 C341.121743,50.5143756 340.561545,50.68823 340.078616,50.804133 C339.595687,50.9200359 339.03549,51.0938904 338.823001,51.1904762 C338.610512,51.287062 337.837826,51.5381851 337.084456,51.7313567 C336.350404,51.9438455 334.669811,52.4460916 333.375562,52.8324349 C331.038185,53.5471698 331.018868,53.5471698 330.535939,53.1994609 C330.284816,52.9869721 328.816712,51.8279425 327.290656,50.5916442 C322.615903,46.8054807 313.981132,40.5660377 313.440252,40.5660377 C313.343666,40.5660377 312.474394,40.0637916 311.54717,39.4649596 C302.526056,33.6504942 291.283468,27.8939802 280.987421,23.8180593 C263.563342,16.9218329 246.274483,13.0197664 226.590296,11.5516622 C222.28257,11.2425876 207.910602,11.2425876 203.602875,11.5516622 C178.432615,13.4254268 156.295148,19.4716981 134.737197,30.3472597 C123.571878,35.9685535 111.904313,43.4636119 103.153639,50.6109614 C102.419587,51.2291105 101.704852,51.7506739 101.569632,51.7893082 C101.453729,51.8279425 100.507188,52.6006289 99.4833783,53.4892183 L97.6096137,55.0925427 L96.7017071,54.8993711 C95.8324349,54.7061995 94.5768194,54.2812219 88.3760108,51.9631626 C86.6181491,51.3063792 82.3683738,49.7416891 78.910602,48.4860737 C75.4528302,47.2304582 71.2030548,45.6657682 69.4451932,45.0283019 C67.7066487,44.3715184 66.180593,43.8499551 66.06469,43.8499551 C65.9487871,43.8499551 54.1460018,64.1522911 39.8126685,88.9748428 L13.7538185,134.09973 L14.410602,134.679245 C14.777628,135.007637 16.4968553,136.630279 18.254717,138.291554 C20.0125786,139.933513 22.0022462,141.826595 22.697664,142.464061 C23.3930818,143.120845 24.7839173,144.434412 25.7884097,145.40027 C26.7929021,146.366128 28.0871518,147.563792 28.6666667,148.085355 C29.2461815,148.606918 30.0381851,149.34097 30.4438455,149.707996 C31.7574124,150.944295 35.4856244,154.440701 36.0071878,154.904313 C36.277628,155.155436 37.0889488,155.908805 37.7843666,156.584906 L39.0786164,157.821204 L38.8081761,159.21204 C37.8423181,164.234501 36.7798742,173.390836 36.7026056,177.138365 C36.6832884,178.683738 36.5867026,182.856244 36.509434,186.410602 C36.277628,196.706649 36.8957772,206.481132 38.44115,216.641959 C45.9748428,266.306379 74.0040431,310.465409 115.709793,338.340072 C127.898922,346.511231 141.575472,353.407457 154.730458,358.043576 C156.951932,358.83558 157.048518,358.893531 157.203055,359.51168 C157.396226,360.284367 158.651842,367.33513 161.027853,381.030997 C161.993711,386.555705 162.824349,391.269093 162.8823,391.520216 L162.978886,391.945193 L215.096586,391.945193 C264.587152,391.945193 267.233603,391.925876 267.330189,391.616801 Z" id="Shape"></path>
                <path d="M207.369721,325.22372 L207.369721,315.275382 L206.558401,315.178796 C206.094789,315.140162 203.91195,314.908356 201.690476,314.67655 C182.102875,312.725517 162.225517,305.520216 145.342318,294.277628 C131.839623,285.295148 119.689128,273.144654 110.706649,259.641959 C104.64106,250.543576 99.2902066,239.590746 95.9290207,229.371968 C86.5795148,201.05301 87.5260557,170.647799 98.614106,143.024259 C99.3867925,141.11186 100.738994,138.059748 101.627583,136.205301 C102.516173,134.350854 103.250225,132.786164 103.250225,132.708895 C103.250225,132.631626 99.0004492,130.120395 93.7848158,127.106918 C88.5884996,124.112758 84.203504,121.562893 84.0296496,121.427673 C83.7785265,121.253819 84.2614555,120.307278 87.5453729,114.608715 C89.6509434,110.957772 91.4281222,107.982929 91.4860737,107.982929 C91.5633423,107.982929 95.9869721,110.49416 101.318509,113.584906 C106.650045,116.675651 111.073675,119.186882 111.170261,119.186882 C111.247529,119.186882 112.116801,118.066487 113.082659,116.694969 C121.58221,104.756963 132.979335,93.7268643 145.342318,85.4977538 C154.440701,79.4321653 165.393531,74.0813118 175.612309,70.7201258 C201.400719,62.2012579 228.792453,62.2012579 254.580863,70.7201258 C264.799641,74.0813118 275.752471,79.4321653 284.850854,85.4977538 C297.368374,93.8234501 308.533693,104.660377 317.361635,117.061995 C318.501348,118.665319 319.467206,119.959569 319.525157,119.959569 C319.563792,119.959569 323.890836,117.486972 329.125786,114.473495 C334.34142,111.440701 338.765049,108.910153 338.938904,108.852201 C339.17071,108.755615 340.078616,110.185085 343.053459,115.342767 C346.491914,121.273136 346.839623,121.987871 346.549865,122.200359 C346.376011,122.33558 341.971698,124.885445 336.775382,127.879605 C331.579066,130.893082 327.32929,133.404313 327.32929,133.481581 C327.32929,133.55885 327.966757,134.949686 328.75876,136.591644 C339.460467,158.922282 343.150045,185.81177 338.90027,210.750225 C335.944744,228.154987 329.280323,244.960916 319.486523,259.641959 C311.740341,271.290207 301.772686,281.798742 290.433513,290.31761 C284.136119,295.030997 278.495508,298.508086 271.116352,302.197664 C257.459119,309.016622 243.087152,313.227763 228.502695,314.67655 C226.281222,314.908356 224.098383,315.140162 223.654088,315.178796 L222.82345,315.275382 L222.82345,325.22372 L222.82345,335.15274 L215.096586,335.15274 L207.369721,335.15274 L207.369721,325.22372 Z M207.369721,269.667565 L207.369721,247.259659 L198.561096,247.259659 C193.442049,247.259659 189.791105,247.18239 189.829739,247.085804 C190.022911,246.525606 215.40566,197.421384 215.482929,197.421384 C215.560198,197.421384 240.92363,246.525606 241.136119,247.085804 C241.174753,247.18239 237.330638,247.259659 232.018419,247.259659 L222.82345,247.259659 L222.82345,269.667565 L222.82345,292.075472 L223.692722,292.075472 C226.416442,292.075472 234.548967,290.72327 240.03504,289.351752 C247.414196,287.516622 253.247978,285.3531 260.395328,281.837376 C268.199461,277.993261 274.477538,273.917341 281.257862,268.296047 C284.213387,265.862084 291.805031,258.13522 294.354897,255.00584 C298.121743,250.350404 301.618149,245.250674 304.496406,240.189578 C306.041779,237.465858 309.209793,230.859389 310.407457,227.807278 C319.293351,205.360737 320.027403,180.422282 312.455076,157.666667 C310.735849,152.489668 307.645103,145.071878 307.200809,145.071878 C306.969003,145.071878 271.502695,165.509434 271.135669,165.857143 C270.903863,166.050314 271.54133,167.286613 275.134322,173.506739 C277.491015,177.582659 279.422731,180.98248 279.422731,181.098383 C279.422731,181.291554 279.557951,181.291554 274.979784,181.484726 C273.125337,181.561995 271.464061,181.639263 271.309524,181.677898 C271.154987,181.697215 269.416442,181.793801 267.446092,181.851752 C265.475741,181.929021 263.447439,182.025606 262.906559,182.064241 C262.384996,182.102875 260.646451,182.199461 259.043127,182.257412 C257.459119,182.315364 255.759209,182.41195 255.27628,182.450584 C254.793351,182.489218 252.880952,182.585804 251.026505,182.663073 C249.172058,182.721024 247.356244,182.798293 247.008535,182.836927 C246.660827,182.856244 244.883648,182.95283 243.048518,183.030099 C241.232704,183.107367 239.416891,183.184636 239.049865,183.22327 C238.682839,183.261905 236.731806,183.339173 234.703504,183.416442 C232.694519,183.493711 230.898023,183.570979 230.743486,183.609614 C230.009434,183.744834 223.596137,183.938005 223.596137,183.822102 C223.596137,183.744834 229.08221,175.148697 235.804582,164.71743 C242.507637,154.286164 249.307278,143.719677 250.910602,141.24708 C253.518419,137.190476 253.827493,136.765499 254.059299,137.074573 C254.194519,137.267745 256.280773,140.84142 258.695418,145.013926 L263.080413,152.605571 L263.659928,152.257862 C263.98832,152.06469 272.140162,147.351303 281.798742,141.78796 C291.438005,136.224618 299.319407,131.5885 299.319407,131.491914 C299.319407,131.202156 296.460467,127.358041 294.123091,124.499102 C291.74708,121.58221 284.05885,113.797394 281.257862,111.479335 C277.008086,107.944295 272.314016,104.621743 267.639263,101.801438 C264.374663,99.81177 256.628482,96.0062893 253.016173,94.5768194 C228.560647,84.918239 201.632525,84.918239 177.176999,94.5768194 C173.56469,96.0062893 165.818509,99.81177 162.553908,101.801438 C157.879155,104.621743 153.146451,107.963612 148.93531,111.479335 C146.192273,113.75876 138.832435,121.157233 136.475741,124.016173 C134.273585,126.662624 131.182839,130.757862 131.279425,130.873765 C131.318059,130.912399 139.218778,135.471249 148.838724,141.015274 C158.45867,146.559299 166.591195,151.272686 166.938904,151.465858 L167.537736,151.832884 L171.748877,144.550314 C174.066936,140.532345 176.056604,137.09389 176.191824,136.900719 C176.384996,136.591644 176.55885,136.784816 177.601977,138.446092 C178.25876,139.489218 179.977987,142.174304 181.426774,144.395777 C182.856244,146.636568 185.019766,149.978437 186.21743,151.832884 C188.265049,155.039533 194.910153,165.374214 196.648697,168.059299 C197.092992,168.754717 199.044025,171.787511 200.995058,174.820305 C202.946092,177.8531 204.993711,181.040431 205.553908,181.909704 C206.133423,182.798293 206.597035,183.609614 206.597035,183.725517 C206.597035,183.860737 206.133423,183.899371 205.109614,183.822102 C204.278976,183.764151 202.424528,183.667565 200.995058,183.609614 C199.565588,183.551662 197.730458,183.474394 196.938455,183.416442 C195.373765,183.319856 192.669362,183.184636 188.825247,183.030099 C187.492363,182.972147 185.753819,182.894879 184.961815,182.836927 C184.169811,182.778976 182.431267,182.701707 181.098383,182.643756 C178.645103,182.54717 176.42363,182.431267 173.043127,182.257412 C172,182.199461 169.237646,182.064241 166.90027,181.967655 C164.562893,181.871069 161.800539,181.735849 160.77673,181.677898 C159.733603,181.619946 158.033693,181.542677 157.009883,181.484726 C152.315813,181.25292 150.77044,181.137017 150.77044,181.021114 C150.77044,180.963163 152.798742,177.370171 155.290656,173.081761 L159.810872,165.258311 L159.289308,164.949236 C157.608715,163.886792 123.533243,144.299191 123.378706,144.299191 C123.1469,144.299191 121.350404,148.123989 119.959569,151.562444 C114.338275,165.432165 111.769093,181.291554 112.715633,196.165768 C113.816712,213.319407 119.051662,229.623091 128.130728,244.265499 C130.120395,247.472147 133.15319,251.683288 135.838275,255.00584 C138.38814,258.13522 145.979784,265.862084 148.93531,268.296047 C155.715633,273.917341 161.993711,277.993261 169.797844,281.837376 C176.945193,285.3531 182.778976,287.516622 190.158131,289.351752 C195.721473,290.742588 203.274483,292.01752 206.268643,292.056155 L207.369721,292.075472 L207.369721,269.667565 Z" id="Shape"></path>
            </g>
        </g>
        <g id="App-Store-Copy" transform="translate(1542.000000, 0.000000)">
            <rect id="Background" fill="url(#linearGradient-1)" x="0" y="0" width="512" height="512"></rect>
            <g id="Grid" opacity="0.5" stroke="#FF0000" stroke-width="2">
                <circle id="Outer" cx="256" cy="256" r="255"></circle>
                <path d="M256.501139,476 C377.502645,476 476,377.502645 476,256.501139 C476,134.497355 377.502645,36 256.501139,36 C134.497355,36 36,134.497355 36,256.501139 C36,377.502645 134.497355,476 256.501139,476 Z M256,439 C357.068109,439 439,357.068109 439,256 C439,154.931891 357.068109,73 256,73 C154.931891,73 73,154.931891 73,256 C73,357.068109 154.931891,439 256,439 Z M256,410 C341.051851,410 410,341.051851 410,256 C410,170.948149 341.051851,102 256,102 C170.948149,102 102,170.948149 102,256 C102,341.051851 170.948149,410 256,410 Z M256,384 C326.692448,384 384,326.692448 384,256 C384,185.307552 326.692448,128 256,128 C185.307552,128 128,185.307552 128,256 C128,326.692448 185.307552,384 256,384 Z M256,311 C286.375661,311 311,286.375661 311,256 C311,225.624339 286.375661,201 256,201 C225.624339,201 201,225.624339 201,256 C201,286.375661 225.624339,311 256,311 Z" id="Inner"></path>
                <polygon id="Hexagon" points="256 1.99999999 476 129.000001 476 383.000001 256 510 36 383.000001 36 129.000001"></polygon>
                <path d="M2,256 L510,256 M36.0295474,129 L475.970453,383 M256,1.99999999 L256,510 M475.970453,129 L36.0295474,383" id="Lines" stroke-linecap="square"></path>
            </g>
        </g>
    </g>
</svg>